<svg width="36" height="36" viewBox="0 0 36 36" fill="none" xmlns="http://www.w3.org/2000/svg">
<path d="M17.8502 17.8499C18.6683 17.8499 19.3689 17.5584 19.952 16.9753C20.5341 16.3932 20.8252 15.6931 20.8252 14.8749C20.8252 14.0568 20.5341 13.3562 19.952 12.7731C19.3689 12.191 18.6683 11.8999 17.8502 11.8999C17.0321 11.8999 16.332 12.191 15.7498 12.7731C15.1667 13.3562 14.8752 14.0568 14.8752 14.8749C14.8752 15.6931 15.1667 16.3932 15.7498 16.9753C16.332 17.5584 17.0321 17.8499 17.8502 17.8499ZM17.8502 32.1671C17.6519 32.1671 17.4535 32.1299 17.2552 32.0556C17.0569 31.9812 16.8833 31.882 16.7346 31.7581C13.115 28.5599 10.4127 25.5914 8.6277 22.8524C6.8427 20.1124 5.9502 17.5524 5.9502 15.1724C5.9502 11.4537 7.14664 8.49109 9.53953 6.28463C11.9314 4.07817 14.7017 2.97495 17.8502 2.97495C20.9987 2.97495 23.769 4.07817 26.1609 6.28463C28.5537 8.49109 29.7502 11.4537 29.7502 15.1724C29.7502 17.5524 28.8577 20.1124 27.0727 22.8524C25.2877 25.5914 22.5854 28.5599 18.9658 31.7581C18.8171 31.882 18.6435 31.9812 18.4452 32.0556C18.2469 32.1299 18.0485 32.1671 17.8502 32.1671Z" fill="#FF5F5F"/>
</svg>
